<svg id="Layer_1" data-name="Layer 1" xmlns="http://www.w3.org/2000/svg" viewBox="0 0 500 500"><defs><style>.cls-1{fill:#b3814b;}.cls-2,.cls-6{fill:#1b1c1c;}.cls-2{opacity:0.3;}.cls-3{fill:none;stroke:#000;stroke-linecap:round;stroke-linejoin:round;stroke-width:20px;}.cls-4{fill:#fff;}.cls-5{opacity:0.15;}</style></defs><title>bottle-opener</title><path class="cls-1" d="M214.27,261.49h71.46a0,0,0,0,1,0,0V453.07A35.73,35.73,0,0,1,250,488.8h0a35.73,35.73,0,0,1-35.73-35.73V261.49a0,0,0,0,1,0,0Z"/><path class="cls-2" d="M252.72,261.49V453.07a35.71,35.71,0,0,1-19.22,31.67,35.7,35.7,0,0,0,52.23-31.67V261.49Z"/><path class="cls-3" d="M214.27,261.49h71.46a0,0,0,0,1,0,0V453.07A35.73,35.73,0,0,1,250,488.8h0a35.73,35.73,0,0,1-35.73-35.73V261.49a0,0,0,0,1,0,0Z"/><path class="cls-4" d="M250,11.2c-87.44,0-110.61,18.35-110.61,92.69S224.11,216.6,224.11,216.6v44.89h51.78V216.6s84.72-38.37,84.72-112.71S337.44,11.2,250,11.2Zm27,147.09c-3.3-16.51-27-14.79-27-14.79s-23.69-1.72-27,14.79c0,0-46.21-27.18-44-64.76s33-35.37,33-35.37l11,18.71h54l11-18.71S318.8,56,321,93.53,277,158.29,277,158.29Z"/><g class="cls-5"><path class="cls-6" d="M250,11.2c-7,0-13.59.13-19.81.39,66.55,2.74,88,21.29,90.55,79.58.07.8.21,1.52.26,2.36.07,1.23,0,2.41-.07,3.61q.07,3.3.07,6.75c0,58.06-51.68,94.18-74.31,107.22a20.76,20.76,0,0,0-10.41,18v32.37h39.61V216.6s84.72-38.37,84.72-112.71S337.44,11.2,250,11.2Z"/></g><path class="cls-3" d="M250,11.2c-87.44,0-110.61,18.35-110.61,92.69S224.11,216.6,224.11,216.6v44.89h51.78V216.6s84.72-38.37,84.72-112.71S337.44,11.2,250,11.2Zm27,147.09c-3.3-16.51-27-14.79-27-14.79s-23.69-1.72-27,14.79c0,0-46.21-27.18-44-64.76s33-35.37,33-35.37l11,18.71h54l11-18.71S318.8,56,321,93.53,277,158.29,277,158.29Z"/></svg>