<?xml version="1.0" standalone="no"?>
<!DOCTYPE svg PUBLIC "-//W3C//DTD SVG 20010904//EN"
 "http://www.w3.org/TR/2001/REC-SVG-20010904/DTD/svg10.dtd">
<svg version="1.0" xmlns="http://www.w3.org/2000/svg"
 width="455.000000pt" height="455.000000pt" viewBox="0 0 455.000000 455.000000"
 preserveAspectRatio="xMidYMid meet">
<metadata>
Created by potrace 1.14, written by Peter Selinger 2001-2017
</metadata>
<g transform="translate(0.000000,455.000000) scale(0.100000,-0.100000)"
fill="#000000" stroke="none">
<path d="M1062 4418 c-251 -26 -485 -137 -636 -299 -152 -164 -214 -348 -214
-633 0 -83 3 -155 6 -161 7 -11 10 -28 14 -68 1 -16 6 -31 10 -33 4 -3 8 -15
8 -28 0 -12 6 -28 13 -35 9 -10 9 -15 0 -18 -8 -3 -5 -11 8 -24 11 -11 22 -33
26 -49 3 -17 9 -30 13 -30 4 0 10 -7 14 -15 3 -9 0 -15 -10 -15 -9 0 -12 5 -8
11 5 8 2 9 -11 2 -10 -6 -25 -8 -34 -6 -13 3 -16 -5 -15 -46 0 -64 3 -67 60
-70 23 -1 26 -4 22 -30 -2 -17 -1 -28 4 -25 4 3 8 12 8 20 0 9 7 14 17 12 10
-2 18 -10 18 -18 0 -9 8 -14 19 -12 13 3 17 -1 13 -12 -3 -8 -2 -18 3 -21 6
-4 10 0 10 7 1 11 24 -19 25 -32 1 -14 17 -30 26 -25 5 3 6 -2 2 -11 -5 -13
-3 -15 7 -9 8 5 11 4 6 -3 -4 -6 -13 -9 -21 -6 -8 4 -13 10 -10 14 3 5 1 11
-4 14 -8 5 -8 -15 -1 -34 1 -3 2 -8 1 -12 0 -4 10 -3 24 2 15 6 26 6 30 0 4
-6 3 -10 -1 -10 -4 0 1 -10 12 -22 10 -12 13 -18 7 -14 -7 4 -13 2 -13 -3 0
-6 5 -11 11 -11 10 0 33 -52 29 -66 -1 -4 3 -10 9 -14 7 -3 13 -20 14 -37 1
-17 5 -29 8 -27 10 6 21 -45 13 -58 -4 -6 -3 -8 3 -5 12 7 33 -36 36 -71 1
-12 4 -22 8 -22 6 0 15 -25 24 -60 0 -3 7 -16 14 -29 7 -13 8 -21 3 -17 -6 4
0 -13 12 -36 13 -24 23 -53 22 -65 -2 -12 1 -20 5 -17 7 4 23 -29 24 -51 1 -5
6 -20 13 -32 7 -12 13 -33 14 -47 1 -15 6 -26 10 -26 4 0 13 -19 19 -42 7 -24
17 -49 23 -56 7 -9 6 -16 -3 -21 -10 -6 -9 -10 4 -15 11 -4 15 -13 12 -26 -3
-11 -1 -18 4 -14 11 6 32 -44 23 -57 -3 -5 0 -9 6 -9 7 0 10 -7 6 -15 -3 -8
-2 -15 3 -15 7 0 36 -74 36 -92 0 -3 3 -10 8 -14 4 -4 7 -16 7 -26 0 -10 5
-18 11 -18 7 0 9 -10 7 -25 -3 -13 -1 -22 3 -19 7 4 20 -26 24 -56 0 -3 6 -14
12 -25 6 -11 11 -22 11 -25 0 -3 5 -18 11 -33 6 -16 9 -32 6 -37 -3 -5 0 -10
6 -12 6 -2 12 -15 12 -30 1 -14 5 -24 8 -22 5 3 31 -67 33 -91 1 -5 4 -12 7
-15 8 -7 66 -159 71 -185 1 -11 6 -23 11 -26 4 -3 9 -19 10 -36 1 -17 6 -29
11 -25 5 3 7 -5 4 -16 -4 -12 -2 -20 2 -17 7 4 45 -90 42 -105 0 -3 4 -11 10
-17 6 -7 8 -20 4 -28 -3 -9 -2 -13 4 -10 9 6 12 2 14 -27 1 -7 5 -16 10 -19
44 -33 -111 -32 -240 1 -142 36 -256 100 -352 197 -55 55 -152 196 -152 219 0
8 -4 14 -8 14 -9 0 -37 64 -33 76 2 4 -1 10 -6 13 -12 8 -54 112 -56 139 -1
12 -4 22 -7 22 -6 0 -29 79 -34 121 -2 13 -6 31 -9 39 -4 8 -8 31 -10 50 -3
19 -7 42 -11 50 -3 8 -7 41 -9 72 -1 32 -4 58 -7 58 -3 0 -6 21 -8 47 -2 26
-5 50 -7 54 -8 11 -114 7 -118 -5 -2 -6 -4 -123 -5 -261 -1 -344 -11 -878 -17
-948 -6 -63 -13 -57 68 -60 12 -1 28 -9 35 -19 7 -10 19 -18 25 -17 9 0 8 2
-1 6 -6 2 -9 10 -6 15 4 7 2 8 -4 4 -7 -4 -12 -2 -12 3 0 6 7 11 15 11 8 0 15
-5 15 -12 0 -6 3 -8 6 -5 4 4 2 13 -4 20 -6 7 -9 24 -6 38 8 33 15 72 16 87 1
6 5 12 10 12 4 0 7 3 7 8 -3 16 1 32 9 32 4 0 8 -9 9 -20 1 -11 -3 -20 -9 -20
-6 0 -8 -3 -5 -7 4 -3 -1 -16 -10 -27 -18 -21 -18 -21 5 -2 12 11 22 16 22 11
0 -4 7 -2 15 5 8 7 15 9 15 4 0 -5 5 -1 11 9 5 9 8 21 5 26 -3 5 4 9 17 9 12
0 33 2 45 5 17 5 22 2 19 -7 -3 -7 -1 -19 4 -27 6 -10 9 -11 10 -1 1 6 3 17 4
22 1 6 3 13 4 18 1 4 5 0 11 -8 5 -9 5 -19 -2 -27 -6 -8 -9 -15 -6 -18 2 -2
12 10 22 27 11 17 14 28 8 24 -6 -3 -13 -2 -17 3 -3 6 -13 7 -22 4 -12 -5 -14
-3 -8 8 7 12 6 12 -7 1 -11 -9 -18 -10 -23 -2 -3 5 2 11 12 11 29 2 48 -2 51
-12 2 -5 7 -7 12 -4 4 2 19 -6 33 -19 14 -13 29 -21 33 -17 4 3 4 0 0 -7 -5
-7 -14 -11 -21 -8 -7 2 -16 -1 -18 -8 -4 -9 1 -12 13 -9 11 3 24 -4 33 -17 8
-12 20 -19 26 -15 25 15 61 15 61 1 0 -11 -8 -13 -27 -10 -26 5 -27 4 -8 -9
14 -11 23 -12 36 -4 10 6 16 14 13 18 -2 4 5 5 16 2 11 -3 20 -9 20 -14 0 -5
3 -8 8 -8 19 3 32 -2 32 -12 0 -8 -4 -8 -14 0 -20 17 -29 -12 -11 -36 8 -10
15 -13 15 -8 0 6 -6 17 -12 24 -11 11 -10 13 3 8 9 -3 20 -2 25 3 10 10 155
-38 166 -54 5 -7 8 -5 9 4 0 10 3 8 9 -5 5 -11 9 -14 9 -7 1 6 6 12 12 12 5 0
7 -4 4 -10 -3 -5 -1 -10 4 -10 6 0 11 5 11 12 0 6 10 3 22 -8 12 -10 18 -13
13 -5 -6 11 -3 13 16 7 13 -4 69 -9 123 -13 63 -3 105 -10 113 -19 18 -17 46
-84 36 -84 -5 0 -2 -4 5 -9 7 -4 14 -18 15 -29 1 -12 4 -22 8 -22 4 0 13 -22
20 -50 7 -27 17 -50 22 -50 5 0 3 -8 -4 -17 -11 -15 -11 -16 1 -6 31 28 68 5
39 -24 -8 -8 -5 -14 12 -23 13 -7 21 -9 17 -5 -4 4 3 16 15 27 l22 20 -28 -17
c-36 -21 -41 -17 -18 14 15 19 21 21 38 13 17 -10 19 -8 15 19 -3 18 0 29 7
29 7 0 9 -5 5 -13 -5 -8 -2 -8 9 2 9 7 16 21 16 30 -1 13 -2 13 -6 -2 -2 -9
-8 -15 -13 -12 -9 6 -1 45 9 45 4 0 12 -5 19 -12 7 -7 12 -8 12 -4 0 5 -7 14
-17 21 -15 11 -14 14 5 33 11 11 23 18 26 15 3 -3 11 6 17 21 7 15 18 25 25
22 7 -3 18 3 26 12 12 15 11 16 -4 3 -13 -9 -18 -10 -18 -2 0 7 -4 10 -9 7 -4
-3 -17 1 -27 9 -10 8 -14 15 -7 15 6 0 14 -4 17 -9 7 -10 25 -9 43 2 7 4 16 0
22 -10 7 -12 10 -13 11 -4 0 11 3 11 17 0 15 -13 15 -12 2 9 -8 12 -20 20 -28
17 -12 -5 -12 -3 0 12 8 9 9 14 2 10 -6 -4 -14 -3 -18 3 -3 5 -11 10 -18 10
-8 0 -8 -3 1 -12 7 -7 12 -17 12 -23 0 -5 -5 -3 -11 5 -9 13 -10 12 -5 -3 5
-15 3 -16 -14 -7 -11 6 -20 16 -20 23 0 7 4 6 10 -3 5 -8 10 -12 11 -7 1 4 2
10 3 15 5 28 37 52 76 56 8 1 24 7 35 13 11 6 28 9 38 8 9 -2 17 2 17 8 0 5 3
7 6 4 4 -4 1 -13 -6 -22 -7 -8 -9 -15 -5 -15 4 0 2 -7 -5 -15 -7 -8 -17 -15
-22 -15 -6 0 -5 6 2 15 6 8 9 19 5 25 -5 8 -12 5 -22 -7 -8 -10 -11 -12 -7 -4
5 10 3 12 -5 7 -8 -6 -9 -12 -2 -20 6 -7 8 -16 4 -19 -9 -9 -23 -9 -22 0 3 20
-2 33 -12 33 -8 0 -7 -6 2 -17 12 -14 12 -16 0 -8 -10 6 -12 4 -6 -5 5 -9 4
-11 -4 -6 -6 4 -8 12 -5 18 5 8 1 9 -10 5 -10 -4 -20 -7 -22 -7 -2 0 -4 -5 -4
-11 0 -5 4 -8 8 -5 11 6 25 -4 45 -34 9 -13 17 -19 17 -13 0 7 -4 15 -10 18
-5 3 -10 11 -10 16 0 6 13 1 30 -11 22 -16 28 -17 24 -6 -3 9 -10 16 -16 16
-5 0 -6 5 -2 12 5 8 13 4 27 -13 l20 -24 -8 24 c-4 14 -3 21 2 18 6 -4 29 7
51 24 39 28 58 29 30 1 -9 -9 -9 -15 -1 -23 8 -8 13 -7 18 2 5 8 4 10 -3 5
-21 -13 -13 10 12 33 21 20 24 20 30 5 4 -9 9 -14 13 -11 3 4 0 14 -8 24 -12
15 -12 16 3 10 10 -3 27 2 40 12 20 17 25 17 48 4 23 -14 24 -14 6 1 -11 9
-21 22 -22 29 -1 6 -3 17 -4 22 -5 23 1 35 19 35 11 0 21 3 23 8 5 11 100 82
110 82 5 0 6 5 2 12 -4 7 -3 8 4 4 7 -4 12 -2 12 3 0 6 7 11 15 11 8 0 14 3
13 7 -4 19 15 41 30 36 11 -5 14 -2 9 9 -3 9 4 24 17 37 26 24 38 27 30 7 -3
-8 3 -19 15 -26 14 -7 21 -7 21 0 0 5 -7 10 -15 10 -15 0 -22 20 -7 20 4 0 15
7 25 14 21 16 13 47 -11 40 -15 -5 -15 -4 -2 8 8 7 16 20 18 28 2 8 10 22 17
30 7 8 14 19 13 23 0 5 3 11 6 15 13 13 5 -23 -9 -38 -13 -14 -12 -17 5 -28
11 -7 20 -8 20 -3 0 5 -6 11 -12 14 -10 3 -10 7 1 20 8 10 11 27 7 42 -5 20
-3 25 11 25 15 0 16 2 3 10 -8 5 -11 12 -7 16 3 4 13 2 20 -5 11 -8 18 -6 33
12 l19 22 -22 -19 c-21 -17 -28 -15 -24 7 1 5 -4 5 -11 1 -10 -5 -10 -4 -1 6
6 7 9 19 6 26 -3 8 0 14 5 14 6 0 10 8 10 18 0 9 3 31 7 47 4 17 8 40 9 53 0
12 7 22 14 22 6 0 12 5 12 11 0 5 -5 7 -10 4 -6 -3 -10 -1 -10 4 0 6 6 11 13
11 7 0 8 3 2 8 -14 10 -13 47 2 47 6 0 15 4 20 8 4 5 1 7 -6 5 -12 -2 -15 12
-17 72 -3 102 -11 187 -20 201 -5 8 -3 9 7 4 12 -7 12 -6 1 7 -7 9 -12 20 -11
24 7 28 -71 231 -108 280 -13 17 -23 36 -23 42 0 7 -4 12 -8 12 -5 0 -15 12
-23 28 -8 15 -22 36 -31 46 -10 11 -18 26 -18 33 0 8 -4 11 -10 8 -6 -3 -7 1
-4 9 3 9 11 13 18 9 6 -4 4 2 -4 12 -14 17 -13 18 3 12 10 -4 17 -2 17 6 0 7
7 3 15 -7 8 -10 12 -23 9 -27 -3 -5 0 -9 5 -9 15 0 14 12 -4 37 -10 14 -22 20
-33 16 -14 -5 -13 -2 3 11 11 10 14 15 8 11 -7 -3 -13 -1 -13 5 0 19 43 1 67
-28 31 -36 29 -24 -2 18 -14 19 -23 40 -21 47 3 7 0 12 -7 10 -7 -1 -10 5 -8
13 2 8 4 20 4 27 0 7 4 10 9 7 5 -4 7 -12 4 -20 -3 -8 1 -17 8 -20 8 -3 12
-14 8 -26 -3 -15 -2 -19 7 -14 6 4 11 4 10 -1 -2 -8 16 -56 27 -75 3 -5 -7 -6
-21 -4 -15 3 -24 2 -20 -2 7 -7 12 -8 41 -11 8 0 12 -6 8 -12 -3 -6 -1 -15 5
-19 7 -4 13 -17 14 -28 1 -12 6 -22 11 -22 5 0 6 -3 3 -7 -4 -3 0 -17 8 -30 9
-13 13 -23 10 -23 -4 0 1 -10 9 -22 9 -12 16 -28 16 -36 0 -7 8 -30 19 -52 14
-29 16 -42 7 -51 -8 -9 -8 -10 2 -5 15 9 46 -58 38 -81 -3 -8 -1 -11 4 -8 9 5
12 -8 9 -31 0 -4 4 -10 11 -14 6 -4 12 -17 13 -28 1 -12 5 -22 10 -22 5 0 7
-7 3 -15 -3 -8 -1 -15 4 -15 11 0 26 -48 21 -69 -1 -7 2 -10 7 -7 5 3 15 -14
22 -37 8 -23 17 -46 21 -52 4 -5 9 -21 11 -35 1 -14 8 -31 15 -38 7 -7 9 -20
6 -29 -4 -11 -3 -14 5 -9 8 5 12 0 12 -14 0 -13 -4 -19 -12 -14 -7 4 -8 3 -4
-5 4 -6 11 -9 16 -6 11 7 32 -54 23 -68 -3 -6 -1 -7 5 -3 16 10 15 -16 0 -34
-11 -12 -10 -12 3 -2 14 11 18 8 28 -19 6 -17 8 -36 4 -42 -3 -5 -1 -7 4 -4 6
4 15 -5 21 -21 5 -15 13 -36 17 -47 l8 -20 -17 20 c-17 20 -17 20 -6 -3 6 -12
15 -22 20 -22 6 0 10 -6 10 -13 0 -8 7 -28 16 -45 8 -18 12 -37 8 -43 -4 -8
-3 -9 4 -5 8 5 12 0 12 -13 0 -11 4 -22 9 -25 9 -6 37 -98 32 -105 -1 -2 3 -7
9 -11 7 -4 13 -19 13 -33 1 -14 5 -23 10 -20 6 4 11 -15 10 -44 -1 -7 3 -11 7
-8 4 3 22 -35 40 -83 17 -48 38 -100 45 -117 8 -16 11 -33 9 -37 -3 -4 0 -8 7
-8 8 0 8 -5 -2 -17 -7 -10 -9 -15 -5 -11 11 10 39 -28 32 -41 -4 -5 -1 -11 6
-13 7 -3 9 -12 5 -22 -4 -10 -12 -14 -18 -10 -8 4 -9 3 -5 -5 6 -9 11 -9 21
-1 10 8 15 6 20 -9 3 -12 3 -26 -1 -32 -4 -7 -3 -9 3 -6 12 8 26 -20 17 -34
-3 -5 0 -9 5 -9 6 0 11 -7 11 -15 0 -9 9 -15 21 -15 17 0 20 -5 17 -23 -3 -15
0 -24 8 -24 7 0 12 10 11 21 -1 15 4 21 21 22 27 2 31 5 37 33 2 11 7 26 10
31 4 6 9 22 11 37 3 15 9 32 15 39 5 6 6 14 2 18 -4 4 -1 11 7 16 8 5 16 17
17 27 4 42 15 78 24 81 5 2 6 8 3 13 -3 6 0 16 6 24 7 8 9 15 6 15 -4 0 -2 9
4 21 9 15 15 18 25 9 10 -8 15 -8 21 1 4 7 3 9 -3 6 -6 -4 -17 1 -24 10 -12
15 -12 16 4 10 9 -3 17 -2 17 2 0 5 -5 11 -11 13 -8 3 -6 14 5 36 9 18 14 32
11 32 -2 0 4 23 15 50 11 28 17 50 14 50 -4 0 -1 7 6 15 7 8 9 15 4 15 -4 0
-3 5 4 12 7 7 12 20 12 30 0 10 5 18 11 18 5 0 7 4 4 10 -3 5 0 20 7 32 6 13
13 28 14 33 3 28 6 28 19 5 8 -14 14 -20 15 -15 0 6 -6 20 -14 31 -13 18 -13
22 6 38 12 11 17 21 11 27 -11 11 26 128 48 156 8 9 9 14 2 10 -7 -5 -9 0 -6
13 3 10 8 19 12 18 19 -2 24 4 11 12 -10 7 -11 13 -5 18 6 4 12 21 13 37 1 17
7 32 12 33 6 2 8 8 4 13 -10 16 8 10 23 -8 10 -12 9 -8 -1 10 -9 15 -13 33 -9
40 8 12 13 33 15 55 1 6 5 12 9 12 4 0 10 -6 12 -12 4 -10 6 -10 6 -1 1 6 -3
14 -8 17 -11 7 9 66 22 66 4 0 6 4 3 9 -4 5 -2 21 4 35 7 18 14 24 27 20 15
-5 15 -3 -2 11 -17 14 -18 17 -5 25 8 5 12 10 8 10 -15 0 15 60 30 61 13 0 13
2 -3 9 -11 5 -14 9 -8 9 7 1 12 4 12 9 -4 19 15 71 23 66 6 -4 8 2 3 15 -4 13
-2 21 5 21 6 0 10 6 9 13 -3 27 1 38 14 31 7 -5 6 0 -3 11 -8 10 -10 16 -3 12
6 -4 15 -2 18 4 4 5 14 8 22 5 8 -3 11 -1 8 5 -4 5 -16 7 -27 3 -17 -5 -18 -3
-9 15 7 12 9 21 7 21 -3 0 3 20 14 44 10 24 16 47 13 50 -4 3 -1 6 6 6 8 0 11
-7 6 -17 -5 -14 -4 -15 6 -6 9 9 9 16 1 26 -9 10 -9 16 0 25 7 7 9 12 5 12 -4
0 3 24 14 52 21 54 27 72 28 97 1 8 7 11 17 7 14 -5 15 -4 5 8 -10 11 -9 21 4
45 8 17 15 32 14 33 -5 8 13 48 20 44 4 -3 13 0 21 6 12 8 12 9 -2 4 -10 -3
-20 -1 -23 4 -4 6 -1 10 5 10 6 0 8 5 5 10 -3 6 -2 10 3 10 6 0 9 6 8 13 -2
25 59 187 71 187 7 0 13 -5 13 -11 0 -5 -4 -7 -10 -4 -6 4 -7 -1 -3 -11 6 -15
7 -15 15 1 5 9 19 20 31 25 18 7 18 9 5 9 -10 1 -18 6 -18 12 0 6 7 8 16 5 9
-3 12 -2 9 5 -4 6 -13 8 -20 5 -7 -2 -16 2 -19 10 -3 9 -2 12 5 9 6 -4 9 0 7
10 -2 10 4 20 12 22 11 3 12 2 2 -4 -10 -7 -7 -14 9 -29 13 -10 19 -14 15 -7
-4 7 2 17 13 23 38 20 69 58 58 69 -8 8 -8 11 0 11 6 0 18 -10 27 -22 10 -15
14 -17 10 -5 -6 18 11 24 19 7 3 -6 4 -5 3 2 -2 7 -9 14 -17 14 -31 3 -33 5
-16 15 13 7 22 7 31 0 7 -6 17 -7 21 -3 5 4 5 -2 1 -13 -5 -15 -4 -17 5 -8 12
12 3 37 -11 28 -5 -3 -11 -1 -14 4 -5 8 23 26 29 19 1 -2 7 -12 13 -23 6 -11
12 -15 12 -9 0 15 -39 64 -51 64 -5 0 -9 -5 -9 -11 0 -5 5 -7 10 -4 6 3 10 2
10 -3 0 -11 -30 -25 -38 -17 -3 3 -2 5 3 5 4 0 2 7 -5 15 -10 12 -8 16 11 24
13 5 27 7 30 5 4 -2 12 3 19 11 10 12 16 13 28 3 10 -8 13 -9 9 -2 -4 7 0 14
8 18 11 4 15 20 15 55 l0 51 -107 -7 c-121 -8 -372 -9 -597 -2 l-150 4 0 -43
c-1 -57 5 -65 51 -67 21 -1 51 -3 66 -4 38 -2 45 -26 14 -55 l-25 -24 26 -11
c24 -10 25 -10 10 2 -17 13 -17 15 2 32 11 10 20 24 20 31 0 10 6 11 23 5 12
-5 27 -9 32 -10 33 -6 55 -14 55 -22 0 -13 -14 -11 -28 3 -8 8 -12 8 -12 1 0
-6 7 -14 16 -17 9 -4 14 -9 11 -12 -10 -10 -49 17 -43 31 3 9 -2 12 -16 10
-11 -3 -23 -7 -27 -11 -3 -4 2 -4 12 -1 24 9 21 -8 -5 -34 l-23 -21 30 14 c31
16 60 13 49 -4 -4 -6 1 -6 14 1 16 8 23 7 33 -6 12 -14 11 -15 -11 -9 -21 6
-22 5 -7 -4 20 -13 38 -5 31 14 -7 19 9 27 26 14 12 -8 12 -9 -2 -4 -27 8 -22
-3 6 -13 25 -10 73 -94 56 -99 -6 -2 -10 -8 -10 -13 0 -6 5 -7 11 -3 14 8 2
-135 -17 -201 -7 -22 -299 -917 -434 -1325 l-87 -265 -18 40 c-9 22 -18 52
-19 67 0 14 -4 24 -8 22 -4 -2 -9 6 -13 18 -4 13 -17 50 -30 83 -40 103 -64
169 -67 185 -2 8 -6 17 -9 20 -11 10 -58 148 -52 154 4 3 1 6 -5 6 -7 0 -12 7
-12 15 0 8 -4 23 -10 33 -5 9 -23 55 -41 102 -17 47 -35 95 -41 107 -6 12 -8
29 -4 38 3 9 2 14 -3 11 -5 -3 -30 52 -56 122 -26 70 -53 142 -62 160 -8 18
-12 41 -8 50 3 9 3 13 -1 9 -7 -7 -50 86 -58 123 -2 8 -8 26 -13 40 -39 93
-52 133 -47 142 4 7 2 8 -4 4 -7 -4 -12 -1 -12 8 0 25 -1 30 -10 41 -5 6 -31
73 -60 150 -49 135 -55 150 -78 205 -5 14 -25 62 -42 108 l-32 82 -63 0 -62 0
-16 -47 c-31 -93 -249 -688 -253 -692 -2 -3 -21 11 -42 30 -83 78 -246 195
-476 341 -94 60 -181 118 -193 128 -12 10 -24 16 -27 13 -3 -4 -6 -1 -6 4 0 6
6 14 13 16 9 4 9 6 0 6 -6 1 -15 -3 -18 -9 -3 -5 -30 6 -60 27 -58 38 -67 49
-35 40 11 -3 20 -1 20 4 0 5 5 9 11 9 5 0 7 -5 3 -12 -5 -7 -3 -8 7 -2 8 5 28
9 44 10 65 3 68 4 59 17 -5 6 -9 32 -8 55 l0 44 -65 -6 c-36 -3 -110 -9 -163
-12 l-98 -6 -104 76 c-100 73 -246 217 -246 244 0 6 -3 12 -7 12 -5 0 -13 10
-19 23 -6 12 -21 41 -33 64 -11 23 -22 50 -24 60 -1 10 -6 24 -10 31 -5 6 -5
17 -2 22 3 6 0 10 -7 11 -7 0 -4 4 7 9 17 7 17 9 3 9 -10 1 -18 9 -19 19 0 9
-3 43 -5 75 -3 33 -1 56 3 54 5 -3 15 -1 23 4 12 8 11 9 -5 7 -17 -3 -20 3
-20 37 -1 62 4 73 28 69 18 -4 18 -3 -3 6 -23 10 -23 12 -7 21 9 6 17 15 17
22 0 7 -4 6 -10 -3 -6 -9 -10 -10 -10 -3 0 6 5 15 10 18 6 3 10 20 10 36 0 17
4 28 9 25 5 -3 7 -19 6 -36 -1 -16 1 -27 6 -25 4 3 6 14 4 25 -2 12 5 26 18
35 21 15 14 20 -20 16 -7 -1 -13 3 -13 9 0 5 5 10 10 10 6 0 10 7 10 16 0 8 5
12 10 9 6 -4 7 -11 4 -17 -4 -7 -2 -8 4 -4 7 4 12 2 12 -4 0 -6 5 -8 10 -5 6
3 10 11 10 16 0 6 -4 8 -9 4 -6 -3 -15 5 -22 17 -11 21 -11 22 4 9 10 -7 17
-10 17 -5 0 4 5 3 12 -4 7 -7 17 -12 23 -12 5 0 4 4 -3 8 -9 7 -6 16 15 39 15
17 36 33 45 36 25 9 12 35 -17 35 -13 0 -23 -3 -22 -7 1 -3 -8 -16 -21 -29
-14 -14 -21 -30 -17 -41 3 -11 0 -18 -9 -18 -25 0 -26 24 -2 49 13 13 31 36
41 51 10 15 20 25 23 22 3 -3 11 4 19 15 8 11 22 24 33 30 16 9 18 7 16 -15
-3 -28 -15 -46 -17 -24 -1 8 -1 18 0 22 1 5 -3 6 -8 2 -6 -3 -8 -13 -5 -23 5
-13 4 -14 -4 -4 -7 11 -10 11 -15 -1 -4 -12 0 -15 14 -12 14 3 19 0 16 -9 -3
-7 -1 -19 4 -27 8 -12 10 -12 8 1 -3 28 1 41 10 35 6 -3 8 7 6 22 -4 26 -4 27
7 6 6 -12 17 -24 26 -28 12 -4 12 -3 3 9 -9 11 -8 15 3 19 8 3 17 1 20 -6 2
-7 3 3 2 21 -4 34 8 52 18 27 6 -17 26 -20 26 -4 0 5 -4 7 -10 4 -15 -9 -12 4
5 21 8 9 15 20 15 26 0 6 -9 0 -21 -13 -18 -21 -20 -22 -15 -4 6 20 6 20 -9 1
-8 -11 -18 -16 -22 -12 -9 9 26 38 38 31 4 -3 9 0 11 5 2 6 13 12 26 13 12 0
22 6 22 11 0 5 3 6 7 3 3 -4 11 -3 17 2 12 9 58 20 120 27 26 4 42 1 47 -8 7
-10 9 -9 9 5 0 9 5 17 10 17 13 0 13 -6 -1 -33 -9 -20 -9 -20 4 -5 8 10 17 14
21 10 4 -4 6 -2 4 3 -4 12 4 15 42 15 23 0 28 -4 24 -17 -5 -17 -5 -17 6 0 12
18 65 24 75 7 3 -5 11 -7 19 -4 43 17 258 -71 323 -132 18 -17 35 -29 38 -26
3 3 5 0 5 -6 0 -6 -8 -15 -17 -21 -10 -5 -15 -13 -11 -16 4 -4 14 0 24 9 13
13 19 14 31 5 7 -7 11 -19 8 -26 -3 -9 0 -13 7 -11 16 6 48 -33 40 -47 -13
-21 -9 -53 5 -48 8 3 11 9 6 12 -11 8 -15 31 -5 31 12 0 42 -39 42 -54 0 -8 7
-16 15 -20 9 -3 12 -12 8 -22 -4 -12 -3 -15 5 -10 7 4 12 1 12 -8 0 -9 5 -16
11 -16 5 0 7 -4 4 -10 -3 -5 -1 -10 5 -10 7 0 10 -6 7 -12 -2 -7 3 -18 12 -25
14 -11 14 -13 -4 -27 -20 -15 -20 -15 1 -10 18 5 24 -1 34 -33 7 -21 16 -42
20 -48 9 -14 30 -86 33 -115 1 -14 5 -27 9 -30 4 -4 9 -24 11 -46 2 -23 6 -45
10 -50 3 -5 8 -31 11 -59 4 -27 8 -59 10 -70 2 -11 -2 -26 -8 -34 -8 -11 -8
-13 2 -7 6 4 12 2 12 -3 0 -6 12 -11 26 -11 17 0 23 -4 18 -12 -5 -8 0 -7 11
2 17 14 18 13 11 -5 -4 -11 -4 -16 0 -12 4 4 13 2 20 -4 14 -11 34 -4 34 12 0
5 -5 9 -11 9 -5 0 -7 -5 -3 -11 4 -7 1 -10 -6 -7 -24 8 -22 26 2 30 14 2 22 9
20 19 -1 9 8 21 20 27 19 9 19 11 4 9 -13 -1 -20 5 -22 21 -2 12 1 22 7 22 6
0 7 5 2 13 -14 23 -12 40 9 57 15 12 18 19 9 24 -6 4 -10 4 -9 -1 2 -4 -1 -10
-6 -13 -5 -3 -11 5 -12 18 -2 12 1 22 7 22 6 0 7 5 2 13 -13 21 -13 47 0 47 8
0 7 4 -3 10 -12 8 -12 10 -1 10 9 0 10 4 4 13 -11 14 -11 27 1 46 5 8 5 12 0
8 -5 -3 -9 31 -9 79 0 46 2 84 5 84 3 0 4 52 4 115 -1 77 2 113 9 108 6 -4 7
-1 2 7 -8 12 -8 119 -1 273 l3 58 -60 -3 -61 -3 -12 -65 c-14 -76 -36 -131
-59 -150 -39 -32 -124 -6 -255 78 -73 47 -213 115 -275 135 -117 37 -330 52
-493 35z m-142 -230 c0 -4 -10 -12 -21 -19 -15 -8 -19 -8 -15 0 4 6 2 11 -3
11 -15 0 -14 37 2 43 12 5 37 -19 37 -35z m-116 -99 c-10 -4 -29 -17 -41 -28
-22 -21 -31 -18 -15 5 13 19 55 43 65 37 6 -4 2 -10 -9 -14z m3394 -1247 c-10
-2 -18 -7 -18 -12 0 -5 8 -7 18 -4 9 3 4 -2 -11 -11 -15 -9 -25 -20 -21 -26 7
-12 -10 -33 -49 -61 -25 -18 -29 -19 -24 -5 3 9 2 19 -4 22 -14 9 -1 25 16 19
8 -4 12 -10 9 -16 -3 -5 3 -4 15 3 14 10 17 15 8 21 -12 7 -2 12 17 9 5 -1 4
5 -3 13 -17 20 -31 12 -26 -14 2 -12 0 -18 -6 -15 -17 11 -9 34 19 52 15 10
30 23 35 30 4 7 15 9 25 5 16 -6 16 -7 0 -10z m-432 -19 c-10 -10 -19 5 -10
18 6 11 8 11 12 0 2 -7 1 -15 -2 -18z m300 -171 c-3 -2 -13 1 -23 7 -11 6 -13
11 -5 11 7 0 10 6 7 13 -4 6 1 3 9 -7 9 -11 14 -21 12 -24z m-1793 -346 c4
-10 1 -13 -9 -9 -7 3 -14 9 -14 14 0 14 17 10 23 -5z m-1093 -17 c0 -5 6 -8
13 -6 6 1 11 -4 9 -12 -2 -8 3 -11 12 -8 8 3 17 -1 20 -9 3 -9 10 -13 14 -10
10 6 83 -41 95 -61 5 -7 12 -11 17 -8 16 10 40 -36 30 -56 -6 -10 -10 -21 -10
-26 1 -4 7 3 14 17 8 14 12 29 9 34 -4 5 -1 6 5 2 7 -4 10 -17 7 -29 -5 -18 1
-25 28 -38 25 -11 34 -12 34 -3 0 7 -3 13 -6 12 -25 -2 -41 4 -35 14 4 7 3 8
-4 4 -7 -4 -12 -3 -12 3 0 17 20 23 26 8 3 -9 15 -18 27 -21 15 -3 22 -13 23
-31 1 -16 -2 -23 -10 -19 -6 4 -3 -1 6 -11 11 -11 23 -15 35 -11 17 7 16 9 -6
27 -13 10 -19 19 -14 19 6 0 20 -8 31 -17 12 -10 33 -26 47 -36 14 -10 22 -23
19 -29 -5 -7 -1 -9 9 -5 20 7 23 -13 5 -31 -9 -9 -9 -12 1 -12 7 0 9 -5 5 -12
-4 -7 -3 -8 5 -4 6 4 20 2 29 -6 15 -11 16 -11 4 3 -10 14 -10 18 2 22 9 4 31
-12 57 -41 23 -26 47 -45 53 -44 6 2 8 1 4 -3 -4 -4 5 -19 20 -34 15 -15 36
-37 46 -49 17 -19 17 -22 3 -16 -9 3 -17 3 -17 0 0 -4 12 -11 26 -17 15 -5 24
-12 20 -16 -3 -3 -1 -12 5 -19 6 -8 8 -22 4 -31 -4 -10 -9 -25 -10 -33 -1 -8
-57 -164 -124 -347 -66 -183 -121 -337 -121 -343 0 -5 -4 -10 -10 -10 -9 0
-11 6 -14 43 -1 6 -4 14 -7 17 -6 5 -49 128 -49 142 -1 4 -8 24 -16 43 -8 20
-12 41 -8 47 4 7 3 8 -4 4 -11 -7 -16 7 -15 42 1 6 -3 12 -7 12 -4 0 -11 12
-15 28 -5 15 -9 32 -11 37 -1 6 -14 41 -28 79 -14 37 -24 72 -21 76 3 5 1 10
-4 12 -5 1 -11 12 -13 23 -1 11 -6 22 -10 25 -4 3 -9 15 -11 25 -1 11 -5 25
-8 30 -5 8 -69 194 -74 215 -1 3 -4 12 -8 20 -19 49 -80 227 -81 240 -1 9 -6
21 -10 28 -4 7 -6 16 -2 19 3 3 -1 12 -9 19 -8 8 -12 21 -9 29 4 8 1 15 -5 15
-6 0 -8 7 -5 15 4 8 1 15 -6 15 -7 0 -10 6 -7 14 3 8 3 17 -1 20 -13 13 -10
35 4 29 8 -3 14 -9 14 -14z m345 -249 c3 -5 -1 -10 -10 -10 -9 0 -13 5 -10 10
3 6 8 10 10 10 2 0 7 -4 10 -10z m130 -90 c-3 -5 -10 -10 -16 -10 -5 0 -9 5
-9 10 0 6 7 10 16 10 8 0 12 -4 9 -10z m322 -508 c1 -9 0 -23 -2 -31 -4 -11
-8 -11 -23 0 -15 13 -16 12 -4 -3 8 -9 19 -16 25 -14 7 1 9 1 4 -1 -4 -3 -5
-9 -1 -14 10 -16 -13 -9 -30 9 -15 17 -15 21 0 51 16 33 26 34 31 3z m-1 -94
c-8 -6 -8 -8 1 -8 11 0 11 -39 -2 -150 -9 -78 -53 -203 -94 -265 -33 -49 -147
-175 -128 -140 3 6 -4 12 -16 12 -17 2 -19 0 -7 -7 13 -8 13 -11 -1 -26 -22
-22 -31 -4 -14 29 7 14 10 29 7 33 -4 5 2 2 12 -6 18 -14 19 -14 7 8 -12 22
-11 23 8 17 12 -4 21 -2 21 4 0 6 -3 10 -7 10 -5 -1 -11 -1 -15 0 -10 2 12 61
23 61 14 0 11 -20 -3 -21 -10 0 -10 -2 0 -6 6 -2 10 -9 7 -13 -3 -5 -2 -11 3
-14 5 -3 8 9 7 27 -1 18 3 38 8 45 5 6 6 12 3 12 -4 0 -2 8 3 18 7 13 6 23 -2
31 -9 9 -8 14 3 21 8 5 11 10 6 10 -6 0 -1 7 10 16 10 8 13 13 6 9 -17 -9 -10
34 8 45 7 4 10 13 6 19 -4 6 -1 21 6 33 7 13 13 25 13 28 9 38 20 67 28 78 5
6 7 12 4 12 -4 0 2 20 13 45 11 25 20 47 20 50 0 3 0 9 0 15 0 5 15 2 34 -8
21 -11 29 -20 22 -24z m1524 -282 c0 -3 -4 -8 -10 -11 -5 -3 -10 -1 -10 4 0 6
5 11 10 11 6 0 10 -2 10 -4z m-1709 -95 c-6 -10 -8 -21 -5 -23 3 -3 -2 -8 -11
-12 -11 -4 -15 -2 -11 6 3 7 9 21 12 31 4 9 10 17 16 17 5 0 4 -8 -1 -19z
m539 -25 c-6 -8 -18 -12 -26 -9 -19 7 -7 23 18 23 17 0 18 -3 8 -14z m-1855
-166 c19 -1 19 -1 2 -11 -9 -6 -15 -14 -12 -20 6 -10 5 -10 -35 -14 -14 -1
-34 -6 -45 -10 -11 -5 -17 -5 -13 0 4 4 3 17 -3 28 -8 14 -8 18 0 13 6 -4 11
-2 11 4 0 6 4 9 9 5 5 -3 12 -1 16 5 3 5 16 8 28 6 12 -3 31 -5 42 -6z m-65
-68 c0 -4 -9 -13 -20 -20 -22 -13 -27 -3 -8 16 14 14 28 16 28 4z m224 -24
c-5 -7 -2 -9 8 -5 9 3 22 0 30 -6 7 -7 11 -11 9 -10 -2 1 -11 -2 -21 -7 -13
-7 -22 -4 -34 9 -14 15 -14 20 -4 24 20 8 20 8 12 -5z m1348 -65 l-27 -22 -13
22 c-7 12 -11 15 -8 5 5 -18 -28 -53 -43 -44 -5 4 -12 2 -16 -4 -4 -6 -10 -8
-15 -5 -4 3 -10 -2 -13 -9 -3 -8 -16 -20 -28 -26 -17 -10 -20 -10 -13 2 5 7 9
15 10 18 17 56 36 67 68 41 18 -15 18 -15 7 7 -7 12 -8 21 -4 20 4 -1 18 3 29
10 12 6 24 8 28 5 3 -3 6 -1 6 5 0 7 5 12 11 12 8 0 8 -4 0 -14 -15 -17 -1
-28 19 -15 9 5 10 9 3 9 -6 0 -10 8 -8 18 2 9 4 19 4 21 1 3 8 -4 16 -15 13
-17 12 -21 -13 -41z m-365 -200 c-5 -12 -13 -20 -18 -17 -4 2 -12 -4 -18 -13
-6 -10 -11 -13 -11 -6 0 6 5 15 10 18 6 4 8 11 5 16 -3 5 1 6 9 3 9 -3 16 -2
16 4 0 6 -6 12 -12 15 -7 3 -3 5 8 4 19 -1 20 -4 11 -24z"/>
<path d="M884 4199 c-4 -7 -3 -9 4 -5 5 3 13 0 15 -6 4 -9 6 -10 6 -1 1 17
-16 25 -25 12z"/>
<path d="M4150 2809 c0 -5 5 -7 10 -4 6 3 10 8 10 11 0 2 -4 4 -10 4 -5 0 -10
-5 -10 -11z"/>
<path d="M1165 2280 c6 -8 10 -17 11 -20 0 -3 6 -17 14 -32 12 -26 14 -26 26
-10 16 21 17 32 3 32 -5 0 -8 -4 -4 -9 3 -5 1 -12 -5 -16 -10 -6 -13 3 -13 38
0 10 -2 15 -5 12 -3 -2 -12 1 -20 8 -13 10 -14 9 -7 -3z"/>
<path d="M1240 2225 c-7 -9 -8 -15 -2 -15 5 0 12 7 16 15 3 8 4 15 2 15 -2 0
-9 -7 -16 -15z"/>
<path d="M1260 2211 c-9 -17 -8 -20 6 -14 13 5 15 3 9 -7 -5 -8 -4 -11 3 -6 6
3 14 0 19 -7 10 -17 56 -30 46 -14 -16 30 -36 45 -51 40 -9 -4 -13 -2 -8 5 3
6 2 13 -3 17 -6 3 -15 -3 -21 -14z m66 -38 c-7 -7 -26 7 -26 19 0 6 6 6 15 -2
9 -7 13 -15 11 -17z"/>
<path d="M1240 2176 c0 -2 7 -7 16 -10 8 -3 12 -2 9 4 -6 10 -25 14 -25 6z"/>
<path d="M1364 2163 c3 -6 -2 -17 -11 -23 -16 -10 -16 -11 -1 -6 9 3 19 0 22
-7 2 -7 4 -2 2 10 -1 12 -6 26 -11 30 -4 5 -5 3 -1 -4z"/>
<path d="M1276 2143 c-6 -14 -5 -15 5 -6 7 7 10 15 7 18 -3 3 -9 -2 -12 -12z"/>
<path d="M1355 2099 c-4 -6 -5 -12 -2 -15 2 -3 7 2 10 11 7 17 1 20 -8 4z"/>
<path d="M1434 2055 c1 -8 6 -18 11 -22 4 -5 5 -2 0 6 -6 11 -4 13 8 8 23 -9
21 0 -2 13 -15 7 -19 7 -17 -5z"/>
<path d="M1540 2015 c-7 -9 -8 -15 -2 -15 5 0 12 7 16 15 3 8 4 15 2 15 -2 0
-9 -7 -16 -15z"/>
<path d="M1475 2011 c-3 -5 -2 -12 3 -15 5 -3 9 1 9 9 0 17 -3 19 -12 6z"/>
<path d="M1563 2002 c-9 -15 -7 -18 8 -19 24 -2 32 12 16 25 -9 8 -16 6 -24
-6z"/>
<path d="M1588 1963 c7 -3 16 -2 19 1 4 3 -2 6 -13 5 -11 0 -14 -3 -6 -6z"/>
<path d="M1678 1928 c17 -17 15 -26 -5 -31 -10 -2 -4 -4 14 -3 l32 1 -21 23
c-12 12 -24 22 -27 22 -3 0 0 -5 7 -12z"/>
<path d="M1595 1910 c-3 -5 -1 -10 4 -10 6 0 11 5 11 10 0 6 -2 10 -4 10 -3 0
-8 -4 -11 -10z"/>
<path d="M1708 1868 c12 -6 22 -15 22 -20 0 -5 5 -6 11 -2 12 7 -26 34 -46 33
-5 0 0 -5 13 -11z"/>
<path d="M1750 1824 c0 -9 -5 -12 -12 -8 -7 4 -8 3 -4 -4 10 -16 14 -15 26 8
7 14 7 20 0 20 -5 0 -10 -7 -10 -16z"/>
<path d="M1775 1821 c-6 -11 13 -26 22 -17 4 3 1 6 -6 6 -7 0 -9 5 -6 10 3 6
4 10 1 10 -3 0 -7 -4 -11 -9z"/>
<path d="M1756 1792 c-3 -5 1 -9 9 -9 8 0 12 4 9 9 -3 4 -7 8 -9 8 -2 0 -6 -4
-9 -8z"/>
<path d="M1803 1783 c9 -2 14 -9 11 -15 -4 -7 -2 -8 5 -4 15 10 4 26 -17 25
-15 -1 -15 -2 1 -6z"/>
<path d="M1955 1430 c-3 -5 -1 -10 4 -10 6 0 11 5 11 10 0 6 -2 10 -4 10 -3 0
-8 -4 -11 -10z"/>
<path d="M1923 1355 c0 -7 6 -11 14 -8 7 3 13 6 13 8 0 2 -6 5 -13 8 -8 3 -14
-1 -14 -8z"/>
<path d="M1913 1310 c-2 -23 13 -35 23 -19 5 8 3 9 -6 4 -9 -5 -10 -2 -5 14 3
11 3 21 -2 21 -5 0 -9 -9 -10 -20z"/>
<path d="M1955 1301 c-3 -5 -2 -12 3 -15 5 -3 9 1 9 9 0 17 -3 19 -12 6z"/>
<path d="M1898 1273 c10 -4 9 -9 -4 -24 -15 -17 -16 -22 -3 -34 10 -10 18 -11
29 -4 12 8 12 9 -4 7 -10 -2 -21 3 -24 11 -3 9 0 11 8 6 8 -5 11 -4 6 3 -3 6
-2 13 4 17 13 8 3 25 -13 24 -8 0 -8 -2 1 -6z"/>
<path d="M1886 1188 c10 -14 21 -24 23 -22 3 3 -6 15 -18 27 l-24 22 19 -27z"/>
<path d="M1870 1170 c0 -5 5 -10 11 -10 5 0 7 5 4 10 -3 6 -8 10 -11 10 -2 0
-4 -4 -4 -10z"/>
<path d="M1846 1145 c-9 -26 -7 -32 5 -12 6 10 9 21 6 23 -2 3 -7 -2 -11 -11z"/>
<path d="M1876 1129 c2 -4 -2 -10 -8 -12 -8 -4 -9 -6 -2 -6 6 -1 17 5 23 12 8
10 7 14 -4 14 -8 0 -12 -4 -9 -8z"/>
<path d="M1820 1086 c0 -2 8 -10 18 -17 15 -13 16 -12 3 4 -13 16 -21 21 -21
13z"/>
<path d="M1835 1040 c-3 -5 -3 -10 1 -10 4 0 0 -6 -11 -13 -14 -11 -15 -16 -5
-22 8 -5 11 -4 6 3 -3 5 -1 12 6 14 6 2 12 12 14 21 3 19 -2 22 -11 7z"/>
<path d="M1813 965 c-3 -9 -3 -18 -1 -21 3 -3 8 4 11 16 6 23 -1 27 -10 5z"/>
<path d="M409 773 c-1 -5 -1 -12 0 -17 1 -5 -6 -5 -16 -2 -9 4 -14 4 -10 -1
14 -13 65 -11 71 3 6 16 -10 29 -19 14 -3 -5 -11 -10 -16 -10 -6 0 -7 5 -4 10
3 6 4 10 1 10 -3 0 -7 -3 -7 -7z"/>
<path d="M1906 621 c-4 -5 -2 -12 3 -15 5 -4 12 -2 15 3 4 5 2 12 -3 15 -5 4
-12 2 -15 -3z"/>
<path d="M1846 591 c-9 -9 -16 -22 -16 -27 0 -5 5 -1 11 9 6 9 14 15 19 12 5
-3 11 -1 14 4 12 18 -11 20 -28 2z"/>
<path d="M1156 4297 c3 -10 9 -15 12 -12 3 3 0 11 -7 18 -10 9 -11 8 -5 -6z"/>
<path d="M1375 4301 c-3 -5 -2 -12 3 -15 5 -3 9 1 9 9 0 17 -3 19 -12 6z"/>
<path d="M1096 4291 c9 -9 34 -9 34 -1 0 5 -9 8 -20 7 -10 -1 -17 -3 -14 -6z"/>
<path d="M1270 4289 c0 -5 5 -7 10 -4 6 3 10 8 10 11 0 2 -4 4 -10 4 -5 0 -10
-5 -10 -11z"/>
<path d="M1073 4269 c-1 -11 5 -23 13 -26 7 -3 11 -9 8 -14 -3 -5 0 -9 5 -9
16 0 13 20 -4 26 -8 4 -15 10 -15 16 0 5 6 6 13 2 8 -5 8 -2 -2 9 -17 21 -16
21 -18 -4z"/>
<path d="M1137 4276 c-4 -9 -11 -14 -17 -11 -5 3 -10 1 -10 -4 0 -14 17 -14
26 0 4 8 9 7 15 -2 4 -8 17 -15 29 -15 16 -1 18 2 9 12 -13 16 1 19 19 4 7 -5
6 -3 -2 6 -14 17 -41 10 -31 -7 4 -5 2 -9 -3 -9 -5 0 -13 10 -19 22 -8 19 -10
20 -16 4z"/>
<path d="M1250 4275 c0 -8 4 -15 10 -15 5 0 7 7 4 15 -4 8 -8 15 -10 15 -2 0
-4 -7 -4 -15z"/>
<path d="M1410 4273 c10 -21 16 -25 36 -22 4 0 11 -5 16 -13 8 -11 9 -10 6 1
-2 8 -12 15 -22 17 -10 1 -24 11 -32 21 -14 17 -14 16 -4 -4z"/>
<path d="M1435 4280 c-3 -5 -1 -10 4 -10 6 0 11 5 11 10 0 6 -2 10 -4 10 -3 0
-8 -4 -11 -10z"/>
<path d="M1470 4275 c0 -8 4 -15 8 -15 5 0 9 7 9 15 0 8 -4 15 -9 15 -4 0 -8
-7 -8 -15z"/>
<path d="M1037 4273 c-12 -11 -8 -22 13 -33 16 -9 18 -8 14 5 -3 8 -10 12 -15
9 -5 -3 -9 -1 -9 5 0 5 6 12 13 14 6 3 7 6 1 6 -6 1 -14 -2 -17 -6z"/>
<path d="M1231 4264 c0 -11 3 -14 6 -6 3 7 2 16 -1 19 -3 4 -6 -2 -5 -13z"/>
<path d="M1290 4275 c0 -8 29 -12 39 -5 9 5 4 8 -13 8 -14 0 -26 -2 -26 -3z"/>
<path d="M1350 4273 c0 -5 5 -15 10 -23 7 -12 9 -10 7 8 -1 19 -17 33 -17 15z"/>
<path d="M1520 4270 c8 -5 20 -10 25 -10 6 0 3 5 -5 10 -8 5 -19 10 -25 10 -5
0 -3 -5 5 -10z"/>
<path d="M992 4255 c1 -11 -3 -29 -8 -40 -7 -17 -6 -18 8 -5 9 8 13 19 11 24
-3 5 0 6 8 4 8 -3 13 -13 11 -23 -3 -14 -1 -15 10 -4 12 11 12 15 -1 29 -9 9
-19 15 -23 13 -3 -2 -8 3 -11 9 -3 7 -5 4 -5 -7z"/>
<path d="M1270 4249 c-12 -8 -10 -9 7 -4 18 5 22 3 17 -8 -3 -8 -1 -17 4 -21
5 -3 8 5 7 16 -2 26 -14 32 -35 17z"/>
<path d="M1334 4252 c3 -5 0 -13 -6 -15 -9 -4 -10 -6 -1 -6 17 -1 25 16 12 25
-7 4 -9 3 -5 -4z"/>
<path d="M1490 4237 c-10 -20 -10 -20 3 -5 18 23 29 12 16 -16 -10 -20 -10
-20 5 -2 20 25 20 32 1 40 -9 3 -19 -3 -25 -17z"/>
<path d="M1384 4235 c-18 -15 -18 -15 0 -8 15 5 17 3 11 -8 -5 -8 -4 -11 0 -6
8 7 17 37 11 37 -1 0 -11 -7 -22 -15z"/>
<path d="M1140 4230 c8 -5 20 -10 25 -10 6 0 3 5 -5 10 -8 5 -19 10 -25 10 -5
0 -3 -5 5 -10z"/>
<path d="M1206 4232 c-3 -5 1 -9 9 -9 8 0 15 4 15 9 0 4 -4 8 -9 8 -6 0 -12
-4 -15 -8z"/>
<path d="M1417 4221 c-4 -17 -3 -21 5 -13 5 5 8 16 6 23 -3 8 -7 3 -11 -10z"/>
<path d="M1556 4232 c-3 -4 10 -16 29 -26 23 -13 32 -24 28 -35 -4 -14 -3 -14
6 -1 8 12 5 19 -12 32 -12 10 -26 18 -30 18 -5 0 -5 5 -2 10 3 6 2 10 -4 10
-5 0 -12 -4 -15 -8z"/>
<path d="M1595 4230 c3 -5 11 -10 16 -10 6 0 7 5 4 10 -3 6 -11 10 -16 10 -6
0 -7 -4 -4 -10z"/>
<path d="M1055 4211 c-3 -5 0 -13 6 -17 7 -4 9 -3 5 4 -3 5 0 13 6 15 9 4 10
6 1 6 -6 1 -14 -3 -18 -8z"/>
<path d="M1120 4210 c-9 -6 -10 -10 -3 -10 6 0 15 5 18 10 8 12 4 12 -15 0z"/>
<path d="M1467 4209 c7 -7 15 -10 18 -7 3 3 -2 9 -12 12 -14 6 -15 5 -6 -5z"/>
<path d="M1536 4207 c3 -10 9 -15 12 -12 3 3 0 11 -7 18 -10 9 -11 8 -5 -6z"/>
<path d="M1630 4210 c0 -5 5 -10 10 -10 6 0 10 5 10 10 0 6 -4 10 -10 10 -5 0
-10 -4 -10 -10z"/>
<path d="M996 4195 c-3 -8 -1 -15 4 -15 6 0 10 7 10 15 0 8 -2 15 -4 15 -2 0
-6 -7 -10 -15z"/>
<path d="M1556 4183 c-6 -14 -5 -15 5 -6 7 7 10 15 7 18 -3 3 -9 -2 -12 -12z"/>
<path d="M1655 4189 c-4 -5 -3 -9 2 -10 4 0 -1 -5 -12 -10 l-20 -9 20 3 c11 2
19 9 17 16 -2 8 3 11 12 8 9 -4 17 -3 20 1 3 4 -4 8 -14 9 -11 1 -22 -2 -25
-8z"/>
<path d="M1695 4171 c-3 -5 0 -13 6 -16 5 -4 8 -13 6 -19 -3 -7 3 -12 14 -11
28 2 32 11 17 34 -13 22 -33 27 -43 12z m35 -16 c20 -24 6 -28 -15 -5 -10 11
-13 20 -8 20 6 0 16 -7 23 -15z"/>
<path d="M1676 4146 c6 -15 4 -17 -6 -11 -9 6 -11 4 -5 -4 5 -9 10 -10 18 -2
8 8 7 14 -2 24 -10 10 -11 8 -5 -7z"/>
<path d="M870 4120 c-9 -6 -10 -10 -3 -10 6 0 15 5 18 10 8 12 4 12 -15 0z"/>
<path d="M1716 4097 c3 -10 9 -15 12 -12 3 3 0 11 -7 18 -10 9 -11 8 -5 -6z"/>
<path d="M1781 4096 c-9 -10 -8 -16 4 -26 10 -9 15 -9 15 -1 0 6 -6 11 -12 11
-8 0 -5 7 6 15 11 8 15 15 9 15 -6 0 -16 -6 -22 -14z"/>
<path d="M2270 4096 c0 -2 7 -7 16 -10 8 -3 12 -2 9 4 -6 10 -25 14 -25 6z"/>
<path d="M1836 4057 c3 -10 9 -15 12 -12 3 3 0 11 -7 18 -10 9 -11 8 -5 -6z"/>
<path d="M793 4053 c4 -3 -1 -12 -11 -20 -15 -13 -15 -13 6 -3 19 9 23 30 5
30 -4 0 -3 -3 0 -7z"/>
<path d="M1817 4039 c4 -13 8 -18 11 -10 2 7 -1 18 -6 23 -8 8 -9 4 -5 -13z"/>
<path d="M796 4008 c3 -5 10 -6 15 -3 13 9 11 12 -6 12 -8 0 -12 -4 -9 -9z"/>
<path d="M2270 4010 c0 -5 5 -10 11 -10 5 0 7 5 4 10 -3 6 -8 10 -11 10 -2 0
-4 -4 -4 -10z"/>
<path d="M2270 3949 c0 -5 5 -7 10 -4 6 3 10 8 10 11 0 2 -4 4 -10 4 -5 0 -10
-5 -10 -11z"/>
<path d="M695 3930 c-3 -6 1 -7 9 -4 18 7 21 14 7 14 -6 0 -13 -4 -16 -10z"/>
<path d="M2275 3901 c-3 -5 -2 -12 3 -15 5 -3 9 1 9 9 0 17 -3 19 -12 6z"/>
<path d="M690 3889 c0 -5 5 -7 10 -4 6 3 10 8 10 11 0 2 -4 4 -10 4 -5 0 -10
-5 -10 -11z"/>
<path d="M1933 3885 c0 -8 4 -12 9 -9 5 3 6 10 3 15 -9 13 -12 11 -12 -6z"/>
<path d="M656 3851 c-4 -5 3 -7 14 -4 23 6 26 13 6 13 -8 0 -17 -4 -20 -9z"/>
<path d="M2296 3812 c-3 -5 1 -9 9 -9 8 0 12 4 9 9 -3 4 -7 8 -9 8 -2 0 -6 -4
-9 -8z"/>
<path d="M620 3796 c0 -2 7 -7 16 -10 8 -3 12 -2 9 4 -6 10 -25 14 -25 6z"/>
<path d="M635 3760 c-3 -5 -3 -10 2 -10 4 0 1 -5 -7 -11 -12 -8 -12 -10 -1 -7
8 2 15 12 17 21 3 19 -2 22 -11 7z"/>
<path d="M2267 3709 c7 -7 15 -10 18 -7 3 3 -2 9 -12 12 -14 6 -15 5 -6 -5z"/>
<path d="M626 3668 c3 -5 10 -6 15 -3 13 9 11 12 -6 12 -8 0 -12 -4 -9 -9z"/>
<path d="M2036 3637 c3 -10 9 -15 12 -12 3 3 0 11 -7 18 -10 9 -11 8 -5 -6z"/>
<path d="M2269 3633 c-13 -16 -12 -17 4 -4 16 13 21 21 13 21 -2 0 -10 -8 -17
-17z"/>
<path d="M633 3605 c0 -8 4 -12 9 -9 5 3 6 10 3 15 -9 13 -12 11 -12 -6z"/>
<path d="M2269 3553 c-13 -16 -12 -17 4 -4 9 7 17 15 17 17 0 8 -8 3 -21 -13z"/>
<path d="M2269 3433 c-13 -16 -12 -17 4 -4 9 7 17 15 17 17 0 8 -8 3 -21 -13z"/>
<path d="M2260 3296 c0 -2 8 -10 18 -17 15 -13 16 -12 3 4 -13 16 -21 21 -21
13z"/>
<path d="M2157 3269 c7 -7 15 -10 18 -7 3 3 -2 9 -12 12 -14 6 -15 5 -6 -5z"/>
<path d="M2190 3249 c0 -5 5 -7 10 -4 13 8 13 -8 -1 -22 -8 -8 -8 -13 0 -18 7
-4 10 -1 9 7 -2 7 3 12 10 10 10 -2 10 2 2 18 -11 21 -30 27 -30 9z"/>
<path d="M2250 3210 c0 -5 5 -10 11 -10 5 0 7 5 4 10 -3 6 -8 10 -11 10 -2 0
-4 -4 -4 -10z"/>
<path d="M3555 2881 c4 -8 2 -17 -6 -22 -9 -6 -10 -9 -2 -9 19 0 27 21 13 33
-10 9 -11 9 -5 -2z"/>
<path d="M3588 2883 c10 -4 9 -9 -4 -24 -9 -10 -14 -19 -9 -19 9 0 34 31 35
43 0 4 -8 7 -17 6 -12 0 -13 -2 -5 -6z"/>
<path d="M1310 2872 c0 -15 11 -21 27 -15 12 5 12 7 1 14 -17 11 -28 11 -28 1z"/>
<path d="M3500 2876 c0 -2 8 -10 18 -17 15 -13 16 -12 3 4 -13 16 -21 21 -21
13z"/>
<path d="M4270 2870 c0 -5 5 -10 10 -10 6 0 10 5 10 10 0 6 -4 10 -10 10 -5 0
-10 -4 -10 -10z"/>
<path d="M350 2850 c-12 -22 2 -62 14 -41 4 6 12 11 18 11 6 0 5 -7 -3 -17 -8
-9 -9 -14 -3 -10 7 4 14 -2 17 -14 3 -12 10 -18 16 -14 6 3 11 0 11 -7 0 -10
2 -10 9 1 9 15 9 36 0 36 -15 0 -38 28 -32 39 3 6 3 8 -2 4 -10 -10 -37 11
-29 23 3 5 3 9 0 9 -3 0 -10 -9 -16 -20z m20 -20 c0 -5 -4 -10 -10 -10 -5 0
-10 5 -10 10 0 6 5 10 10 10 6 0 10 -4 10 -10z m52 -35 c2 3 5 -1 5 -8 0 -21
-25 -16 -30 5 -4 15 -2 17 7 9 7 -6 15 -9 18 -6z"/>
<path d="M1356 2855 c-9 -26 -7 -32 5 -12 6 10 9 21 6 23 -2 3 -7 -2 -11 -11z"/>
<path d="M4295 2850 c-3 -6 1 -7 9 -4 18 7 21 14 7 14 -6 0 -13 -4 -16 -10z"/>
<path d="M4330 2849 c0 -5 5 -7 10 -4 6 3 10 8 10 11 0 2 -4 4 -10 4 -5 0 -10
-5 -10 -11z"/>
<path d="M300 2843 c0 -6 5 -15 10 -18 6 -4 8 -10 5 -15 -3 -4 3 -14 12 -21
15 -12 16 -12 8 1 -6 8 -10 17 -10 20 -1 12 -24 44 -25 33z"/>
<path d="M3630 2830 c0 -5 7 -7 15 -4 8 4 15 8 15 10 0 2 -7 4 -15 4 -8 0 -15
-4 -15 -10z"/>
<path d="M3690 2801 c0 -6 4 -13 10 -16 6 -3 7 1 4 9 -7 18 -14 21 -14 7z"/>
<path d="M3654 2788 c-4 -7 -4 -10 1 -6 4 4 15 2 24 -5 14 -11 14 -10 2 6 -16
20 -18 21 -27 5z"/>
<path d="M3784 2778 c-5 -7 -9 -20 -9 -29 -1 -16 1 -16 22 -2 13 8 23 20 22
27 0 7 -2 6 -6 -1 -2 -7 -12 -13 -20 -13 -13 0 -13 3 -3 15 7 8 10 15 7 15 -3
0 -9 -6 -13 -12z"/>
<path d="M3730 2770 c0 -5 5 -10 11 -10 5 0 7 5 4 10 -3 6 -8 10 -11 10 -2 0
-4 -4 -4 -10z"/>
<path d="M4175 2749 c-11 -16 -1 -19 13 -3 7 8 8 14 3 14 -5 0 -13 -5 -16 -11z"/>
<path d="M3820 2736 c0 -2 7 -6 15 -10 8 -3 15 -1 15 4 0 6 -7 10 -15 10 -8 0
-15 -2 -15 -4z"/>
<path d="M480 2704 c-11 -12 -11 -15 1 -12 8 2 13 -3 11 -10 -1 -8 2 -11 8 -7
8 5 8 11 1 19 -6 7 -8 16 -4 19 3 4 4 7 1 7 -3 0 -11 -7 -18 -16z"/>
<path d="M4130 2710 c-9 -6 -10 -10 -3 -10 6 0 15 5 18 10 8 12 4 12 -15 0z"/>
<path d="M450 2669 c0 -5 5 -7 10 -4 6 3 10 8 10 11 0 2 -4 4 -10 4 -5 0 -10
-5 -10 -11z"/>
<path d="M490 2650 c0 -5 5 -10 11 -10 5 0 7 5 4 10 -3 6 -8 10 -11 10 -2 0
-4 -4 -4 -10z"/>
<path d="M4010 2580 c-9 -16 -8 -18 5 -14 8 3 13 10 10 14 -3 5 1 11 7 13 10
4 10 6 1 6 -7 1 -17 -8 -23 -19z"/>
<path d="M4070 2590 c0 -5 5 -10 11 -10 5 0 7 5 4 10 -3 6 -8 10 -11 10 -2 0
-4 -4 -4 -10z"/>
<path d="M4030 2560 c-9 -6 -10 -10 -3 -10 6 0 15 5 18 10 8 12 4 12 -15 0z"/>
<path d="M4014 2529 c-3 -6 -1 -16 5 -22 9 -9 10 -7 5 7 -6 15 -4 17 6 11 9
-5 11 -4 6 3 -9 15 -13 15 -22 1z"/>
<path d="M3990 2466 c0 -8 4 -17 8 -20 4 -2 8 4 8 15 0 10 -4 19 -8 19 -4 0
-8 -6 -8 -14z"/>
<path d="M3971 2437 c2 -1 13 -9 24 -17 19 -14 19 -14 6 3 -7 9 -18 17 -24 17
-6 0 -8 -1 -6 -3z"/>
<path d="M3973 2385 c0 -8 4 -12 9 -9 4 3 8 9 8 15 0 5 -4 9 -8 9 -5 0 -9 -7
-9 -15z"/>
<path d="M3936 2373 c-6 -14 -5 -15 5 -6 7 7 10 15 7 18 -3 3 -9 -2 -12 -12z"/>
<path d="M3950 2344 c0 -9 -5 -12 -12 -8 -7 4 -8 3 -4 -4 9 -15 33 -5 33 13 0
8 -4 15 -9 15 -4 0 -8 -7 -8 -16z"/>
<path d="M3916 2311 c-3 -5 1 -11 9 -14 9 -4 12 -1 8 9 -6 16 -10 17 -17 5z"/>
<path d="M2270 2266 c0 -2 8 -10 18 -17 15 -13 16 -12 3 4 -13 16 -21 21 -21
13z"/>
<path d="M3895 2250 c-3 -5 -1 -10 4 -10 6 0 11 5 11 10 0 6 -2 10 -4 10 -3 0
-8 -4 -11 -10z"/>
<path d="M3910 2211 c0 -6 4 -12 8 -15 5 -3 9 1 9 9 0 8 -4 15 -9 15 -4 0 -8
-4 -8 -9z"/>
<path d="M2240 2196 c0 -2 7 -7 16 -10 8 -3 12 -2 9 4 -6 10 -25 14 -25 6z"/>
<path d="M3878 2168 c-17 -15 -33 -53 -18 -43 6 3 10 11 10 17 0 6 8 17 18 24
9 7 14 14 11 14 -3 0 -12 -6 -21 -12z"/>
<path d="M3913 2165 c0 -8 4 -12 9 -9 5 3 6 10 3 15 -9 13 -12 11 -12 -6z"/>
<path d="M3907 2129 c7 -7 15 -10 18 -7 3 3 -2 9 -12 12 -14 6 -15 5 -6 -5z"/>
<path d="M3870 2104 c0 -9 -5 -12 -12 -8 -7 4 -9 3 -5 -1 14 -16 33 -13 33 6
0 11 -4 19 -8 19 -4 0 -8 -7 -8 -16z"/>
<path d="M3824 2015 c-10 -8 -14 -15 -9 -15 6 0 3 -5 -5 -10 -11 -7 -11 -10
-2 -10 7 0 10 -5 6 -12 -4 -6 -3 -8 4 -4 6 3 9 16 7 27 -3 14 0 19 9 16 7 -3
13 1 13 9 0 17 1 17 -23 -1z"/>
<path d="M3836 1948 c3 -5 10 -6 15 -3 13 9 11 12 -6 12 -8 0 -12 -4 -9 -9z"/>
<path d="M3796 1865 c-19 -14 -32 -60 -14 -49 5 3 7 11 5 17 -2 6 6 19 17 29
25 21 19 23 -8 3z"/>
<path d="M2459 1818 c-5 -18 -6 -38 -1 -34 7 8 12 36 6 36 -2 0 -4 -1 -5 -2z"/>
<path d="M3750 1770 c-11 -7 -11 -10 -2 -10 7 0 10 -5 6 -12 -4 -7 -3 -8 5 -4
6 4 9 11 6 16 -3 4 1 11 7 13 7 3 9 6 3 6 -5 0 -17 -4 -25 -9z"/>
<path d="M3723 1708 c-17 -23 -25 -44 -9 -24 9 11 22 23 28 28 9 5 9 8 2 8 -6
0 -16 -6 -21 -12z"/>
<path d="M3735 1689 c-4 -6 -5 -12 -2 -15 2 -3 7 2 10 11 7 17 1 20 -8 4z"/>
<path d="M3710 1651 c0 -6 4 -12 8 -15 5 -3 9 1 9 9 0 8 -4 15 -9 15 -4 0 -8
-4 -8 -9z"/>
<path d="M2473 1625 c0 -8 4 -12 9 -9 5 3 6 10 3 15 -9 13 -12 11 -12 -6z"/>
<path d="M3677 1579 c7 -7 15 -10 18 -7 3 3 -2 9 -12 12 -14 6 -15 5 -6 -5z"/>
<path d="M3670 1540 c0 -5 5 -10 11 -10 5 0 7 5 4 10 -3 6 -8 10 -11 10 -2 0
-4 -4 -4 -10z"/>
<path d="M3645 1510 c-3 -6 1 -7 9 -4 18 7 21 14 7 14 -6 0 -13 -4 -16 -10z"/>
<path d="M3664 1492 c4 -7 3 -19 -4 -27 -8 -10 -8 -15 2 -21 7 -4 10 -4 6 1
-4 4 -3 14 4 22 8 11 8 17 -2 26 -10 9 -11 9 -6 -1z"/>
<path d="M2476 1468 c3 -5 10 -6 15 -3 13 9 11 12 -6 12 -8 0 -12 -4 -9 -9z"/>
<path d="M3632 1450 c3 -8 -2 -20 -10 -26 -12 -9 -12 -13 -2 -19 9 -5 11 -4 6
3 -9 15 6 16 21 1 8 -8 13 -8 18 0 3 6 1 10 -5 9 -7 -2 -14 5 -15 15 -2 11 -7
22 -11 25 -4 4 -5 0 -2 -8z"/>
<path d="M3602 1346 c7 -8 15 -12 17 -11 5 6 -10 25 -20 25 -5 0 -4 -6 3 -14z"/>
<path d="M3590 1331 c0 -6 4 -13 10 -16 6 -3 7 1 4 9 -7 18 -14 21 -14 7z"/>
<path d="M2453 1284 c-3 -8 -2 -19 3 -24 5 -5 9 1 9 16 0 28 -3 30 -12 8z"/>
<path d="M3590 1251 c0 -6 4 -13 10 -16 6 -3 7 1 4 9 -7 18 -14 21 -14 7z"/>
<path d="M3570 1236 c0 -8 4 -17 9 -20 5 -4 7 3 4 14 -6 23 -13 26 -13 6z"/>
<path d="M2435 1230 c-3 -6 1 -7 9 -4 18 7 21 14 7 14 -6 0 -13 -4 -16 -10z"/>
<path d="M3555 1198 c25 -15 47 -19 39 -7 -3 5 -9 7 -14 4 -5 -3 -11 -1 -15 5
-3 5 -12 10 -18 10 -7 0 -3 -6 8 -12z"/>
<path d="M2735 1170 c3 -5 8 -10 11 -10 2 0 4 5 4 10 0 6 -5 10 -11 10 -5 0
-7 -4 -4 -10z"/>
<path d="M3531 1157 c2 -1 13 -9 24 -17 19 -14 19 -14 6 3 -7 9 -18 17 -24 17
-6 0 -8 -1 -6 -3z"/>
<path d="M3530 1120 c-11 -7 -11 -10 -2 -10 8 0 10 -5 6 -12 -4 -7 -3 -9 1 -5
7 6 17 37 12 37 -1 0 -9 -5 -17 -10z"/>
<path d="M2399 1087 c6 -8 7 -18 3 -22 -4 -5 -2 -5 5 -1 14 8 6 36 -9 36 -7 0
-6 -5 1 -13z"/>
<path d="M3510 1095 c0 -5 5 -17 10 -25 5 -8 10 -10 10 -5 0 6 -5 17 -10 25
-5 8 -10 11 -10 5z"/>
<path d="M3546 1072 c-3 -5 1 -9 9 -9 8 0 12 4 9 9 -3 4 -7 8 -9 8 -2 0 -6 -4
-9 -8z"/>
<path d="M2413 1035 c0 -8 4 -15 9 -15 4 0 8 4 8 9 0 6 -4 12 -8 15 -5 3 -9
-1 -9 -9z"/>
<path d="M2347 989 c6 -23 9 -24 16 -5 3 8 0 17 -7 19 -10 4 -12 -1 -9 -14z"/>
<path d="M3455 930 c3 -5 8 -10 11 -10 2 0 4 5 4 10 0 6 -5 10 -11 10 -5 0 -7
-4 -4 -10z"/>
<path d="M2353 915 c0 -8 4 -12 9 -9 5 3 6 10 3 15 -9 13 -12 11 -12 -6z"/>
<path d="M3470 910 c-13 -8 -12 -10 3 -10 9 0 17 5 17 10 0 12 -1 12 -20 0z"/>
<path d="M2263 899 c-13 -13 -6 -39 9 -39 5 0 6 5 3 10 -3 6 -1 10 4 10 6 0
11 -5 11 -11 0 -5 5 -7 12 -3 7 5 9 2 6 -8 -4 -8 0 -15 7 -15 21 0 0 34 -25
42 -11 4 -18 11 -15 16 8 12 1 11 -12 -2z"/>
<path d="M2219 843 c-1 -2 -2 -7 -3 -12 0 -5 -12 -18 -26 -30 -14 -11 -19 -20
-12 -21 6 0 12 5 12 10 0 6 5 10 11 10 5 0 7 -4 4 -10 -3 -5 -1 -10 5 -10 7 0
9 7 6 16 -4 10 -2 14 6 11 7 -2 12 -10 11 -16 -4 -16 14 -13 21 4 3 9 12 12
23 9 15 -5 15 -4 3 4 -9 7 -19 7 -26 2 -11 -10 -24 -3 -24 12 0 5 5 6 10 3 6
-3 10 -2 10 4 0 6 6 8 14 5 8 -3 16 -2 19 3 3 4 -10 8 -29 8 -19 0 -35 -1 -35
-2z"/>
<path d="M3420 830 c-12 -7 -10 -9 7 -7 12 0 19 5 17 9 -6 10 -6 10 -24 -2z"/>
<path d="M3430 801 c0 -6 4 -12 8 -15 5 -3 9 1 9 9 0 8 -4 15 -9 15 -4 0 -8
-4 -8 -9z"/>
<path d="M2126 759 c-20 -16 -24 -24 -16 -34 8 -9 8 -15 0 -20 -15 -9 -12 -19
9 -32 15 -10 20 -9 25 2 3 8 0 17 -6 21 -7 4 -8 3 -4 -4 4 -7 3 -12 -3 -12
-18 0 -21 18 -5 31 13 10 17 10 25 -2 6 -10 9 -10 10 -1 1 6 2 17 3 22 0 6 8
15 16 20 17 10 43 -7 33 -23 -3 -6 -1 -7 5 -3 22 14 -2 42 -32 37 -4 -1 -14 3
-21 9 -9 7 -20 4 -39 -11z m35 -13 c-6 -7 -9 -15 -6 -18 4 -4 -26 -3 -45 1 -3
1 6 10 19 21 25 21 50 18 32 -4z"/>
<path d="M3395 750 c-2 -3 5 -7 16 -7 10 -1 19 2 19 6 0 9 -29 10 -35 1z"/>
<path d="M2072 717 c-7 -8 -7 -18 -2 -27 6 -8 10 -19 10 -25 -1 -5 -5 -3 -10
6 -7 13 -29 16 -59 10 -2 -1 2 -7 8 -15 18 -22 66 -13 67 11 1 11 4 25 8 31
10 16 -10 24 -22 9z m-22 -51 c-7 -7 -13 -7 -20 0 -6 6 -3 10 10 10 13 0 16
-4 10 -10z"/>
<path d="M3396 715 c-9 -26 -7 -32 5 -12 6 10 9 21 6 23 -2 3 -7 -2 -11 -11z"/>
<path d="M456 704 c-5 -14 -4 -15 9 -4 17 14 19 20 6 20 -5 0 -12 -7 -15 -16z"/>
<path d="M2175 709 c-4 -6 -5 -12 -2 -15 2 -3 7 2 10 11 7 17 1 20 -8 4z"/>
<path d="M550 695 c-11 -13 -10 -14 4 -9 9 3 16 10 16 15 0 13 -6 11 -20 -6z"/>
<path d="M475 691 c-3 -5 -2 -12 3 -15 5 -3 9 1 9 9 0 17 -3 19 -12 6z"/>
<path d="M3410 690 c0 -5 5 -10 11 -10 5 0 7 5 4 10 -3 6 -8 10 -11 10 -2 0
-4 -4 -4 -10z"/>
<path d="M3370 670 c0 -5 5 -10 10 -10 6 0 10 5 10 10 0 6 -4 10 -10 10 -5 0
-10 -4 -10 -10z"/>
<path d="M550 660 c0 -5 5 -10 11 -10 5 0 7 5 4 10 -3 6 -8 10 -11 10 -2 0 -4
-4 -4 -10z"/>
<path d="M2936 653 c-6 -14 -5 -15 5 -6 7 7 10 15 7 18 -3 3 -9 -2 -12 -12z"/>
<path d="M357 653 c-10 -10 -8 -33 3 -33 5 0 6 7 3 17 -5 12 -3 14 7 8 9 -5
11 -4 6 3 -8 14 -10 14 -19 5z"/>
<path d="M416 648 c3 -5 10 -6 15 -3 13 9 11 12 -6 12 -8 0 -12 -4 -9 -9z"/>
<path d="M580 656 c0 -2 9 -6 20 -9 11 -3 18 -1 14 4 -5 9 -34 13 -34 5z"/>
<path d="M3395 649 c-4 -6 -5 -12 -2 -15 2 -3 7 2 10 11 7 17 1 20 -8 4z"/>
<path d="M2050 632 c0 -5 7 -9 15 -9 8 0 12 4 9 9 -3 4 -9 8 -15 8 -5 0 -9 -4
-9 -8z"/>
<path d="M711 609 c-13 -11 -20 -19 -15 -19 4 0 16 8 27 18 17 14 20 15 15 1
-4 -9 -2 -22 4 -30 8 -11 9 -11 5 2 -3 9 -1 21 4 26 20 20 -16 21 -40 2z"/>
<path d="M326 611 c-4 -5 -2 -12 3 -15 5 -4 12 -2 15 3 4 5 2 12 -3 15 -5 4
-12 2 -15 -3z"/>
<path d="M655 610 c-3 -5 -1 -10 4 -10 6 0 11 5 11 10 0 6 -2 10 -4 10 -3 0
-8 -4 -11 -10z"/>
<path d="M1997 603 c-4 -3 -7 -11 -7 -17 0 -6 5 -5 12 2 6 6 9 14 7 17 -3 3
-9 2 -12 -2z"/>
<path d="M807 586 c-4 -10 -1 -13 8 -9 8 3 12 9 9 14 -7 12 -11 11 -17 -5z"/>
<path d="M3336 592 c-3 -5 1 -9 9 -9 8 0 12 4 9 9 -3 4 -7 8 -9 8 -2 0 -6 -4
-9 -8z"/>
<path d="M840 580 c0 -5 -12 -16 -27 -24 -16 -8 -23 -15 -18 -15 6 -1 17 3 25
9 16 10 44 -6 35 -20 -3 -5 0 -12 6 -16 8 -4 9 -3 5 4 -5 8 0 12 12 12 11 0
26 7 33 17 13 15 12 15 -9 2 -26 -16 -59 -2 -54 25 2 9 0 16 -3 16 -3 0 -5 -4
-5 -10z"/>
<path d="M335 570 c3 -5 8 -10 11 -10 2 0 4 5 4 10 0 6 -5 10 -11 10 -5 0 -7
-4 -4 -10z"/>
<path d="M861 573 c-1 -18 13 -23 29 -11 12 8 12 9 -2 5 -9 -3 -19 -1 -22 6
-3 9 -5 9 -5 0z"/>
<path d="M3330 551 c0 -11 3 -22 8 -24 4 -3 7 6 7 19 0 13 -3 24 -7 24 -5 0
-8 -9 -8 -19z"/>
<path d="M933 553 c4 -6 0 -13 -8 -17 -8 -3 -14 -13 -14 -23 1 -17 2 -17 6 0
2 9 8 15 13 12 4 -3 10 2 14 10 3 8 0 17 -6 21 -6 4 -8 3 -5 -3z"/>
<path d="M1910 550 c0 -5 5 -10 10 -10 6 0 10 5 10 10 0 6 -4 10 -10 10 -5 0
-10 -4 -10 -10z"/>
<path d="M3360 550 c-9 -6 -10 -10 -3 -10 6 0 15 5 18 10 8 12 4 12 -15 0z"/>
<path d="M250 542 c0 -14 48 -47 57 -38 3 3 1 6 -5 6 -6 0 -20 10 -32 22 -11
12 -20 17 -20 10z"/>
<path d="M196 528 c3 -5 10 -6 15 -3 13 9 11 12 -6 12 -8 0 -12 -4 -9 -9z"/>
<path d="M230 535 c0 -5 5 -17 10 -25 5 -8 10 -10 10 -5 0 6 -5 17 -10 25 -5
8 -10 11 -10 5z"/>
<path d="M950 521 c0 -6 7 -7 17 -4 11 4 14 3 9 -5 -4 -7 -2 -12 4 -12 7 0 10
6 8 13 -6 15 -38 22 -38 8z"/>
<path d="M330 509 c0 -5 5 -7 10 -4 6 3 10 8 10 11 0 2 -4 4 -10 4 -5 0 -10
-5 -10 -11z"/>
<path d="M830 510 c0 -5 5 -10 11 -10 5 0 7 5 4 10 -3 6 -8 10 -11 10 -2 0 -4
-4 -4 -10z"/>
<path d="M1023 505 c-19 -21 -16 -27 7 -13 11 7 20 16 20 20 0 12 -14 9 -27
-7z"/>
<path d="M1069 510 c-6 -4 1 -7 15 -7 14 0 26 3 26 7 0 3 -7 7 -15 7 -8 0 -19
-4 -26 -7z"/>
<path d="M1828 513 c7 -3 16 -2 19 1 4 3 -2 6 -13 5 -11 0 -14 -3 -6 -6z"/>
<path d="M3307 507 c-3 -8 0 -14 7 -14 7 0 13 6 13 14 0 7 -4 13 -8 13 -4 0
-9 -6 -12 -13z"/>
<path d="M930 500 c0 -5 5 -10 11 -10 5 0 7 5 4 10 -3 6 -8 10 -11 10 -2 0 -4
-4 -4 -10z"/>
<path d="M1163 504 c4 -7 0 -15 -9 -18 -17 -6 -10 -26 9 -26 8 0 8 3 -1 9 -11
7 -11 9 2 14 8 3 16 1 19 -6 2 -6 7 -2 11 8 4 11 4 16 0 12 -4 -4 -14 -1 -22
6 -10 8 -13 8 -9 1z"/>
<path d="M1211 503 c-2 -20 16 -24 30 -5 13 15 12 16 -3 4 -13 -10 -17 -10
-21 0 -4 9 -6 9 -6 1z"/>
<path d="M1254 486 c-16 -14 -23 -26 -16 -26 6 0 12 6 12 13 0 8 3 8 9 -2 8
-12 12 -12 25 -2 9 8 16 9 16 3 0 -14 -27 -35 -38 -29 -4 3 -8 -5 -8 -18 0
-13 4 -21 8 -19 5 3 6 8 4 12 -2 4 8 16 22 26 19 15 24 16 20 4 -4 -8 -2 -21
4 -29 8 -11 9 -10 4 4 -4 12 -2 17 6 14 7 -2 12 -10 10 -16 -1 -7 2 -10 8 -6
8 5 7 11 -1 21 -6 8 -8 14 -5 14 4 0 2 9 -4 21 -7 11 -14 18 -17 15 -3 -3 -11
1 -18 10 -10 14 -14 13 -41 -10z m31 -5 c-3 -6 -11 -8 -17 -5 -6 4 -5 9 3 15
16 10 23 4 14 -10z m39 -17 c3 -8 2 -12 -4 -9 -6 3 -10 10 -10 16 0 14 7 11
14 -7z"/>
<path d="M255 491 c-9 -15 15 -25 28 -12 9 9 7 10 -7 5 -13 -5 -17 -4 -12 4 4
7 5 12 2 12 -3 0 -7 -4 -11 -9z"/>
<path d="M880 490 c8 -5 20 -10 25 -10 6 0 3 5 -5 10 -8 5 -19 10 -25 10 -5 0
-3 -5 5 -10z"/>
<path d="M955 480 c-3 -5 -1 -10 4 -10 6 0 11 5 11 10 0 6 -2 10 -4 10 -3 0
-8 -4 -11 -10z"/>
<path d="M986 473 c-6 -14 -5 -15 5 -6 7 7 10 15 7 18 -3 3 -9 -2 -12 -12z"/>
<path d="M1073 475 c0 -8 4 -12 9 -9 4 3 8 -1 8 -8 0 -8 5 -6 11 5 6 9 14 15
20 12 5 -4 9 -1 9 4 0 14 -13 14 -28 -1 -9 -9 -12 -9 -12 0 0 7 -4 12 -8 12
-5 0 -9 -7 -9 -15z"/>
<path d="M1200 470 c0 -5 5 -10 11 -10 5 0 7 5 4 10 -3 6 -8 10 -11 10 -2 0
-4 -4 -4 -10z"/>
<path d="M3306 463 c-9 -23 -7 -26 10 -9 8 9 21 13 27 9 7 -3 8 -2 4 2 -13 15
-35 14 -41 -2z"/>
<path d="M1134 453 c3 -7 -1 -13 -11 -15 -15 -3 -15 -5 3 -10 22 -6 28 12 9
29 -4 4 -5 3 -1 -4z"/>
<path d="M1175 449 c-4 -6 -5 -12 -2 -15 2 -3 7 2 10 11 7 17 1 20 -8 4z"/>
<path d="M1205 440 c-16 -7 -17 -9 -3 -9 9 -1 20 4 23 9 7 11 7 11 -20 0z"/>
<path d="M1639 418 c-3 -6 -6 -48 -4 -48 1 0 9 8 16 17 12 14 12 16 0 8 -11
-6 -13 -4 -8 8 5 13 1 25 -4 15z"/>
<path d="M3276 412 c-4 -7 -2 -12 4 -12 6 0 8 -4 5 -10 -3 -5 -2 -10 3 -10 6
0 13 7 16 16 3 8 2 13 -3 9 -5 -3 -11 0 -13 7 -3 9 -6 9 -12 0z"/>
<path d="M1586 365 c-11 -8 -15 -15 -9 -15 6 0 16 7 23 15 16 19 11 19 -14 0z"/>
<path d="M3260 370 c0 -5 5 -10 11 -10 5 0 7 5 4 10 -3 6 -8 10 -11 10 -2 0
-4 -4 -4 -10z"/>
<path d="M3250 343 c0 -1 8 -7 18 -12 13 -7 19 -6 19 2 0 7 -9 13 -19 13 -10
0 -18 -1 -18 -3z"/>
<path d="M3240 298 c-10 -21 -10 -21 3 -6 8 10 17 15 20 11 4 -3 7 -1 7 5 0
20 -19 13 -30 -10z"/>
<path d="M1562 268 c-7 -7 -12 -17 -12 -22 0 -6 5 -3 11 7 6 9 15 14 21 11 7
-4 8 -2 4 4 -9 15 -9 15 -24 0z"/>
<path d="M3239 263 c-13 -16 -12 -17 4 -4 16 13 21 21 13 21 -2 0 -10 -8 -17
-17z"/>
<path d="M3255 250 c-3 -5 -1 -10 4 -10 6 0 11 5 11 10 0 6 -2 10 -4 10 -3 0
-8 -4 -11 -10z"/>
<path d="M1439 223 c-13 -16 -12 -17 4 -4 16 13 21 21 13 21 -2 0 -10 -8 -17
-17z"/>
<path d="M1560 230 c-8 -5 -10 -10 -5 -10 6 0 17 5 25 10 8 5 11 10 5 10 -5 0
-17 -5 -25 -10z"/>
<path d="M3184 217 c2 -15 6 -29 9 -32 4 -3 5 -2 2 2 -2 3 6 16 20 29 22 20
22 23 6 21 -11 -1 -17 -5 -15 -9 3 -4 1 -8 -5 -8 -5 0 -12 6 -14 13 -3 6 -4 0
-3 -16z"/>
<path d="M3250 209 c0 -5 5 -7 10 -4 6 3 10 8 10 11 0 2 -4 4 -10 4 -5 0 -10
-5 -10 -11z"/>
<path d="M1553 195 c0 -8 4 -12 9 -9 5 3 6 10 3 15 -9 13 -12 11 -12 -6z"/>
<path d="M1518 193 c7 -3 16 -2 19 1 4 3 -2 6 -13 5 -11 0 -14 -3 -6 -6z"/>
<path d="M3215 189 c-11 -16 -1 -19 13 -3 7 8 8 14 3 14 -5 0 -13 -5 -16 -11z"/>
<path d="M1508 173 c7 -3 16 -2 19 1 4 3 -2 6 -13 5 -11 0 -14 -3 -6 -6z"/>
</g>
</svg>
